<?xml version="1.0" standalone="no"?>
<!DOCTYPE svg PUBLIC "-//W3C//DTD SVG 20010904//EN"
 "http://www.w3.org/TR/2001/REC-SVG-20010904/DTD/svg10.dtd">
<svg version="1.0" xmlns="http://www.w3.org/2000/svg"
 width="162.000000pt" height="162.000000pt" viewBox="0 0 162.000000 162.000000"
 preserveAspectRatio="xMidYMid meet">
<metadata>
Created by potrace 1.14, written by Peter Selinger 2001-2017
</metadata>
<g transform="translate(0.000000,162.000000) scale(0.100000,-0.100000)"
fill="#000000" stroke="none">
<path d="M1300 1374 c-113 -30 -214 -56 -225 -58 -104 -20 -132 -40 -150 -102
-6 -19 -13 -35 -15 -34 -17 3 -123 -37 -161 -60 l-47 -29 5 40 6 39 -121 0
-120 0 -7 -57 c-8 -64 -11 -94 -20 -168 -17 -156 -39 -293 -52 -322 -13 -32
-45 -53 -79 -53 -29 0 -54 38 -54 85 0 31 -4 43 -12 40 -7 -3 -31 -7 -53 -9
-22 -3 -69 -8 -104 -12 l-64 -7 6 -63 c7 -75 24 -110 71 -152 47 -41 102 -56
212 -55 106 1 172 24 236 85 l37 35 26 -33 c14 -18 46 -42 71 -53 l45 -22 -7
-45 c-8 -58 9 -78 85 -99 31 -8 72 -20 91 -25 307 -86 368 -97 396 -69 15 15
25 52 94 314 17 66 55 214 85 330 142 543 149 576 139 593 -20 32 -96 24 -314
-34z m175 -101 c-7 -27 -66 -241 -130 -478 -64 -236 -122 -453 -130 -481 -14
-48 -16 -51 -42 -46 -16 3 -109 22 -208 42 -176 35 -180 37 -183 63 l-3 26 69
-4 c83 -4 182 14 237 42 55 28 125 101 159 163 15 28 26 53 24 55 -5 5 -191
65 -193 63 -1 -2 -10 -19 -20 -38 -56 -110 -185 -146 -250 -68 -36 43 -38 135
-4 244 34 111 122 171 211 145 37 -12 78 -55 78 -85 0 -9 2 -16 5 -16 18 0
202 44 208 50 4 4 -1 31 -12 61 -43 113 -126 166 -268 173 -23 1 -45 5 -48 8
-9 8 24 26 61 33 16 3 115 25 219 49 105 24 200 45 212 45 21 1 22 0 8 -46z"/>
</g>
</svg>
