<svg viewBox="0 0 48 48" xml:space="preserve" xmlns="http://www.w3.org/2000/svg"><path clip-rule="evenodd" d="M43 35H29.195c.595 3.301 2.573 5.572 4.401 7H36a1 1 0 1 1 0 2H12a1 1 0 1 1 0-2h2.403c1.827-1.428 3.807-3.699 4.401-7H5a4 4 0 0 1-4-4V8a4 4 0 0 1 4-4h38a4 4 0 0 1 4 4v23a4 4 0 0 1-4 4zm-25.603 7h13.205c-1.595-1.682-3.015-3.976-3.459-7h-6.287c-.444 3.024-1.864 5.318-3.459 7zM45 8a2 2 0 0 0-2-2H5a2 2 0 0 0-2 2v19h42V8zm0 21H3v2a2 2 0 0 0 2 2h38a2 2 0 0 0 2-2v-2zm-21 3a1 1 0 1 1 0-2 1 1 0 1 1 0 2z" fill-rule="evenodd" fill="#525d75" class="fill-000000"></path></svg>